<?xml version="1.0" standalone="no"?><!DOCTYPE svg PUBLIC "-//W3C//DTD SVG 1.1//EN" "http://www.w3.org/Graphics/SVG/1.1/DTD/svg11.dtd"><svg t="1672455930065" class="icon" viewBox="0 0 1024 1024" version="1.1" xmlns="http://www.w3.org/2000/svg" p-id="2882" xmlns:xlink="http://www.w3.org/1999/xlink" width="200" height="200"><path d="M417.28 488.96h-106.24c-37.12 0-67.84-30.72-67.84-67.84v-106.24c0-37.12 30.72-67.84 67.84-67.84h106.24c37.12 0 67.84 30.72 67.84 67.84v106.24c0 37.12-30.72 67.84-67.84 67.84z m-106.24-203.52c-16.64 0-29.44 12.8-29.44 29.44v106.24c0 16.64 12.8 29.44 29.44 29.44h106.24c16.64 0 29.44-12.8 29.44-29.44v-106.24c0-16.64-12.8-29.44-29.44-29.44h-106.24zM417.28 776.96h-106.24c-37.12 0-67.84-30.72-67.84-67.84v-106.24c0-37.12 30.72-67.84 67.84-67.84h106.24c37.12 0 67.84 30.72 67.84 67.84v106.24c0 37.12-30.72 67.84-67.84 67.84z m-106.24-203.52c-16.64 0-29.44 12.8-29.44 29.44v106.24c0 16.64 12.8 29.44 29.44 29.44h106.24c16.64 0 29.44-12.8 29.44-29.44v-106.24c0-16.64-12.8-29.44-29.44-29.44h-106.24zM712.96 488.96h-106.24c-37.12 0-67.84-30.72-67.84-67.84v-106.24c0-37.12 30.72-67.84 67.84-67.84h106.24c37.12 0 67.84 30.72 67.84 67.84v106.24c0 37.12-30.72 67.84-67.84 67.84z m-106.24-203.52c-16.64 0-29.44 12.8-29.44 29.44v106.24c0 16.64 12.8 29.44 29.44 29.44h106.24c16.64 0 29.44-12.8 29.44-29.44v-106.24c0-16.64-12.8-29.44-29.44-29.44h-106.24zM678.4 776.96h-37.12c-56.32 0-102.4-46.08-102.4-102.4v-37.12c0-56.32 46.08-102.4 102.4-102.4H678.4c56.32 0 102.4 46.08 102.4 102.4v37.12c0 56.32-46.08 102.4-102.4 102.4z m-37.12-203.52c-35.84 0-64 28.16-64 64v37.12c0 35.84 28.16 64 64 64H678.4c35.84 0 64-28.16 64-64v-37.12c0-35.84-28.16-64-64-64h-37.12z" fill="#ffffff" p-id="2883"></path></svg>