<?xml version="1.0" standalone="no"?><!DOCTYPE svg PUBLIC "-//W3C//DTD SVG 1.1//EN" "http://www.w3.org/Graphics/SVG/1.1/DTD/svg11.dtd"><svg t="1672455560360" class="icon" viewBox="0 0 1024 1024" version="1.1" xmlns="http://www.w3.org/2000/svg" p-id="5518" xmlns:xlink="http://www.w3.org/1999/xlink" width="200" height="200"><path d="M211.183909 199.909669a30.64832 30.64832 0 0 1-3.458195-14.166309c0-16.966217 13.753783-30.72 30.72-30.72h112.64c16.966217 0 30.72 13.753783 30.72 30.72 0 5.310171-1.358994 10.357029-3.782948 14.774857 59.298377 13.019429 103.257234 65.895863 103.257234 128.585143v194.56c0 72.712777-58.944366 131.657143-131.657143 131.657143h-109.714286c-72.712777 0-131.657143-58.944366-131.657142-131.657143v-194.56c0-62.061714 43.084069-114.508069 101.481325-128.185783l1.774446-0.402286-0.323291-0.605622zM351.085714 172.577646h-112.64a13.165714 13.165714 0 0 0-4.252525 25.629257l41.337417 14.072686-43.563886 2.993005C172.371383 219.365669 125.805714 269.041371 125.805714 329.10336v194.56c0 63.01696 51.085897 114.102857 114.102857 114.102857h109.714286c63.01696 0 114.102857-51.085897 114.102857-114.102857v-194.56c0-60.061989-46.567131-109.737691-106.159543-113.82784l-43.537554-2.988617 41.30816-14.075612a13.174491 13.174491 0 0 0 8.914652-12.467931 13.165714 13.165714 0 0 0-13.165715-13.165714zM318.317714 770.874514c9.691429 80.7424 52.027977 144.698514 127.268572 192.146286l3.507931 2.213303-2.009966 3.627886c-27.250103 49.157851-54.744503 61.274697-120.290742 46.277485l-3.466972-0.807497-0.947931-1.176137c-27.871817-34.625829-44.383086-115.638857-50.097006-243.647634a19.031771 19.031771 0 0 1-11.893029-17.639132c0-10.503314 8.513829-19.017143 19.017143-19.017143h1.462857v-29.257142h26.331429v29.257142h1.462857c10.503314 0 19.017143 8.513829 19.017143 19.017143 0 6.822766-3.62496 12.950674-9.240869 16.316709l-0.405211 0.23552 0.283794 2.453211z m116.757943 195.820983c-75.751131-49.729829-117.897509-116.901303-126.17728-201.230628l4.205714-0.424229-1.16736-3.464046a10.245851 10.245851 0 0 0 6.966126-9.70752 10.24 10.24 0 0 0-10.24-10.24h-10.24v-29.257143h-8.777143v29.257143h-10.24a10.24 10.24 0 0 0-10.24 10.24 10.247314 10.247314 0 0 0 8.224183 10.043977l3.377737 0.672915 0.146286 3.442103c5.441829 126.449371 21.416229 206.801189 47.376091 240.449828l2.258652 0.512c31.749851 7.068526 53.296274 6.957349 69.421348 0.073143 14.157531-6.045989 24.919771-17.364114 36.859612-37.911406l0.551497-0.955245-2.305463-1.500892z" fill="#91000A" p-id="5519"></path><path d="M285.257143 707.98336h17.554286v29.257143h-17.554286z" fill="#D8000F" p-id="5520"></path><path d="M285.257143 707.98336h5.851428v29.257143h-5.851428z" fill="#C40714" p-id="5521"></path><path d="M215.04 655.320503h156.525714v52.662857H215.04z" fill="#FFE400" p-id="5522"></path><path d="M244.297143 655.320503v52.662857h-29.257143v-52.662857h29.257143z" fill="#FFA700" p-id="5523"></path><path d="M276.48 765.034789h36.786469c8.352914 85.090011 51.679817 152.322926 129.979245 201.698742-24.20736 43.670674-47.447771 60.07808-117.448411 43.670675-27.384686-34.020206-43.822811-115.810011-49.317303-245.369417z" fill="#FFE400" p-id="5524"></path><path d="M276.48 765.034789h12.704914c4.635794 54.315886 13.374903 102.139611 26.218789 143.469714 12.843886 41.330103 36.928366 76.941897 72.25344 106.835383-15.65696 2.74432-35.371886 1.195154-61.6448-4.93568C298.510629 976.384 281.997897 894.595657 276.48 765.034789z" fill="#FFA700" p-id="5525"></path><path d="M264.777143 737.240503m14.628571 0l29.257143 0q14.628571 0 14.628572 14.628571l0 0q0 14.628571-14.628572 14.628572l-29.257143 0q-14.628571 0-14.628571-14.628572l0 0q0-14.628571 14.628571-14.628571Z" fill="#D8000F" p-id="5526"></path><path d="M291.108571 737.240503c-8.07936 0-14.628571 6.549211-14.628571 14.628571s6.549211 14.628571 14.628571 14.628572h-11.702857c-8.07936 0-14.628571-6.549211-14.628571-14.628572s6.549211-14.628571 14.628571-14.628571z" fill="#C40714" p-id="5527"></path><path d="M375.954286 712.371931H210.651429v-61.44h165.302857v61.44z m-156.525715-52.662857v43.885715h147.748572v-43.885715H219.428571z" fill="#91000A" p-id="5528"></path><path d="M215.04 655.320503h156.525714v52.662857H215.04z" fill="#FFE400" p-id="5529"></path><path d="M215.04 655.320503h29.257143v52.662857h-29.257143z" fill="#FFA700" p-id="5530"></path><path d="M295.497143 70.177646c14.542263 0 26.331429 11.789166 26.331428 26.331428l-0.005851 0.466652c-0.21504 7.914057-5.690514 30.37184-16.811154 69.819245L295.497143 200.401189l-9.514423-33.606218C274.6368 126.542994 269.165714 103.979886 269.165714 96.509074l0.004389-0.482743c0.257463-14.321371 11.945691-25.848686 26.32704-25.848685z m-1.354606 59.899611l1.354606 5.118537 1.612068-6.101577c4.596297-17.576229 7.017326-28.55936 7.159223-32.263314l0.005852-0.321829a8.777143 8.777143 0 0 0-17.554286 0l0.007314 0.33792c0.149211 3.7888 2.659474 15.105463 7.415223 33.230263z" fill="#91000A" p-id="5531"></path><path d="M216.502857 163.800503m21.942857 0l112.64 0q21.942857 0 21.942857 21.942857l0 0q0 21.942857-21.942857 21.942857l-112.64 0q-21.942857 0-21.942857-21.942857l0 0q0-21.942857 21.942857-21.942857Z" fill="#FFE400" p-id="5532"></path><path d="M264.777143 163.800503c-12.118309 0-21.942857 9.824549-21.942857 21.942857 0 12.118309 9.824549 21.942857 21.942857 21.942857h-26.331429c-12.118309 0-21.942857-9.824549-21.942857-21.942857 0-12.118309 9.824549-21.942857 21.942857-21.942857z" fill="#FFA700" p-id="5533"></path><path d="M117.028571 206.22336m122.88 0l109.714286 0q122.88 0 122.88 122.88l0 194.56q0 122.88-122.88 122.88l-109.714286 0q-122.88 0-122.88-122.88l0-194.56q0-122.88 122.88-122.88Z" fill="#D8000F" p-id="5534"></path><path d="M298.422857 206.22336c-67.864869 0-122.88 55.015131-122.88 122.88v194.56c0 67.864869 55.015131 122.88 122.88 122.88h-58.514286c-67.864869 0-122.88-55.015131-122.88-122.88v-194.56c0-67.864869 55.015131-122.88 122.88-122.88z" fill="#C40714" p-id="5535"></path><path d="M294.462903 334.954789l91.124297 91.12576-91.124297 91.12576L203.337143 426.080549l91.12576-91.12576z m33.838811 91.150628h-42.8032v37.1712h7.241143v-2.976914h28.320914v2.976914h7.241143v-37.1712z m-56.32-37.814857l-7.160685 2.011429c1.367771 2.976914 2.574629 6.034286 3.701028 9.172114h-10.620343v7.3216h17.700572c-3.3792 8.126171-9.815771 16.493714-19.390172 25.183086l2.333257 8.045714a157.975406 157.975406 0 0 0 8.287086-7.965257v31.136914h7.402057v-32.343771a71.191406 71.191406 0 0 1 6.275657 6.597485l4.103315-6.275657a72.667429 72.667429 0 0 0-10.298515-8.126171c4.103314-5.632 7.080229-11.344457 9.0112-17.137372v-6.436571h-7.643428a95.15008 95.15008 0 0 0-3.701029-11.183543z m31.297829 57.848686v7.562971h-10.539886v-7.562971h10.539886z m17.781028 0v7.562971h-10.539885v-7.562971h10.539885z m-17.781028-13.677715v7.3216h-10.539886v-7.3216h10.539886z m17.781028 0v7.3216h-10.539885v-7.3216h10.539885z m3.620572-29.769142h-35.401143v18.746514h35.401143v-18.746514z m-7.160686 6.034285v6.677943h-21.079771v-6.677943h21.079771z m11.666286-17.056914h-44.251429v6.7584h44.251429v-6.7584z" fill="#FFE400" p-id="5536"></path><path d="M294.462903 334.954789l7.836526 7.836525-83.289235 83.289235L302.299429 509.366857l-7.836526 7.837989L203.337143 426.080549l91.12576-91.12576z" fill="#FFA700" p-id="5537"></path><path d="M413.834971 166.12352a30.6688 30.6688 0 0 1-5.359908-10.83392l-1.4848-5.541303c-4.391497-16.388389 5.333577-33.233189 21.723428-37.624686l128.564663-34.448822c16.386926-4.390034 33.231726 5.33504 37.624686 21.723428l1.483337 5.53984c1.14688 4.277394 1.334126 8.630857 0.6656 12.801463 64.810423-8.957074 127.66208 31.545051 145.034972 96.37888l65.252205 243.526217c18.819657 70.234697-22.861531 142.426697-93.096228 161.246354l-150.858606 40.423132c-70.234697 18.819657-142.426697-22.861531-161.246354-93.096229L336.884297 322.691657c-17.197349-64.185783 16.129463-130.004114 75.604846-155.231086l1.809554-0.751908-0.463726-0.585143z m147.985555-71.492754l-128.564663 34.450285a13.165714 13.165714 0 0 0-9.309623 16.123612l1.4848 5.541303a13.171566 13.171566 0 0 0 11.01824 9.654857l43.885714 5.7344-45.810834 12.266057c-60.869486 16.310857-96.99328 78.877257-80.683886 139.746743l65.253669 243.526217c16.310857 60.869486 78.877257 96.99328 139.746743 80.683886l150.860068-40.423132c60.869486-16.310857 96.991817-78.877257 80.682423-139.746743l-65.253668-243.52768c-16.310857-60.869486-78.877257-96.991817-139.74528-80.682422l-45.807909 12.282148 35.137829-26.907794a13.171566 13.171566 0 0 0 4.716251-13.870812l-1.4848-5.541302a13.165714 13.165714 0 0 0-16.125074-9.309623zM698.261211 760.221989c34.312777 85.3504 99.361646 142.836297 195.478675 172.655177l3.961417 1.2288-1.28 5.122925-0.561737 2.189898c-7.63904 29.279086-17.061303 47.123017-33.110309 59.716754-18.066286 14.178011-44.606903 21.091474-85.666377 22.387566l-1.509669 0.048274-1.220022-0.892343c-40.424594-29.551177-82.110171-113.064229-125.754515-250.979474-8.180297-0.282331-15.500434-5.860206-17.70496-14.091703l-0.990354-3.693714c-2.717989-10.144914 3.301669-20.57216 13.446583-23.291612l3.999451-1.070811-8.562103-31.954652 27.650926-7.409371 8.562103 31.954651 3.999451-1.070811c10.144914-2.719451 20.57216 3.301669 23.290149 13.446583l0.990354 3.693714a19.028846 19.028846 0 0 1-5.696365 19.10784l-0.352549 0.3072 1.029851 2.595109z m188.894355 179.782217c-98.031909-31.458743-164.398811-91.827931-198.775955-180.921783l-0.658285-1.726172 4.072594-1.557942-1.989486-3.66592a10.245851 10.245851 0 0 0 4.99712-11.648732l-0.988891-3.693714a10.24 10.24 0 0 0-12.542537-7.241143l-12.476709 3.344091-8.562103-31.954651-10.693485 2.865737 8.562102 31.953189-12.478171 3.344091a10.24 10.24 0 0 0-7.241143 12.541074l0.990354 3.693715a10.247314 10.247314 0 0 0 11.631178 7.445943l3.782948-0.65536 2.442972 7.745828c42.544274 134.243474 83.137097 215.995246 121.105554 244.826697l2.43712-0.093623c37.077577-1.54624 60.796343-8.004754 76.560091-20.374674 13.728914-10.773943 22.209097-26.272914 29.242515-52.054308l0.582217-2.172343z" fill="#91000A" p-id="5538"></path><path d="M644.138423 700.511086l19.172206-5.137555 8.562102 31.954652-19.172205 5.137554z" fill="#D8000F" p-id="5539"></path><path d="M644.138423 700.512549l6.391223-1.713006 8.56064 31.953188-6.38976 1.713006z" fill="#C40714" p-id="5540"></path><path d="M552.034011 663.54176l170.9568-45.806446 15.4112 57.51808-170.955337 45.806446z" fill="#FFE400" p-id="5541"></path><path d="M583.990126 654.979657l15.4112 57.519543-31.954652 8.56064-15.4112-57.516617 31.954652-8.562103z" fill="#FFA700" p-id="5542"></path><path d="M651.247909 765.390263l40.177371-10.765166c34.026057 90.489417 101.021989 151.240411 200.989257 182.254446-13.658697 54.781074-34.241097 79.501897-115.495497 82.069211-39.865783-29.14304-81.75616-113.664-125.671131-253.557028z" fill="#FFE400" p-id="5543"></path><path d="M651.247909 765.390263l13.8752-3.71712c20.958354 57.967177 44.500114 107.641417 70.623817 149.02272 26.123703 41.381303 62.850194 73.227703 110.179474 95.5392-16.299154 7.579063-38.518491 11.720411-69.00736 12.712228-39.994514-29.106469-81.886354-113.625966-125.671131-253.557028z" fill="#FFA700" p-id="5544"></path><path d="M630.332104 738.459371m14.130115-3.786153l35.648867-9.552085q14.130115-3.786153 17.916267 10.343962l0.989701 3.693612q3.786153 14.130115-10.343962 17.916268l-35.648867 9.552085q-14.130115 3.786153-17.916268-10.343962l-0.989701-3.693612q-3.786153-14.130115 10.343963-17.916268Z" fill="#D8000F" p-id="5545"></path><path d="M657.242697 731.24864c-7.80288 2.091886-12.434286 10.111269-10.3424 17.915611l0.988892 3.693715c2.091886 7.804343 10.112731 12.434286 17.915611 10.343863l-12.780983 3.426011c-7.804343 2.091886-15.825189-2.540983-17.915611-10.343863l-0.990355-3.695177c-2.091886-7.80288 2.53952-15.825189 10.3424-17.915611z" fill="#C40714" p-id="5546"></path><path d="M743.778011 678.356114l-179.434057 48.079726-17.683017-65.9968 179.434057-48.078263 17.683017 65.995337z m-186.368-11.710171l13.140846 49.03936 162.476617-43.534629-13.139383-49.040823-162.47808 43.534629z" fill="#91000A" p-id="5547"></path><path d="M552.034011 663.54176l170.9568-45.806446 15.4112 57.51808-170.955337 45.806446z" fill="#FFE400" p-id="5548"></path><path d="M552.035474 663.543223l31.953189-8.562103 15.412663 57.519543-31.954652 8.56064z" fill="#FFA700" p-id="5549"></path><path d="M465.931703 2.41664c15.270766-4.091611 30.967223 4.970789 35.058834 20.243017l0.125806 0.497372c2.023131 8.46848 2.622903 34.153326 2.055314 79.440457l-0.517851 36.872777-18.098469-30.35136c-23.622217-39.716571-36.194011-62.6688-38.720366-71.12704l-0.146285-0.514926c-4.091611-15.272229 4.970789-30.968686 20.243017-35.060297z m16.631223 68.5568l3.24608 5.627611-0.005852-7.390354c-0.073143-23.105829-0.6656-37.285303-1.6896-41.688503l-0.078994-0.320365a11.072366 11.072366 0 0 0-21.388434 5.731474c1.08544 4.052114 7.852617 17.023269 19.9168 38.040137z" fill="#91000A" p-id="5550"></path><path d="M409.7897 126.282077m21.195173-5.679229l128.565677-34.44907q21.195172-5.679229 26.874401 15.515943l1.48493 5.541831q5.679229 21.195172-15.515944 26.874402l-128.565676 34.449069q-21.195172 5.679229-26.874402-15.515943l-1.484929-5.541831q-5.679229-21.195172 15.515943-26.874401Z" fill="#FFE400" p-id="5551"></path><path d="M459.742354 112.896c-11.705783 3.136366-18.651429 15.169829-15.515063 26.874149l1.4848 5.541302c3.136366 11.705783 15.168366 18.652891 26.872686 15.516526l-28.756846 7.706332c-11.705783 3.136366-23.739246-3.810743-26.875611-15.516526l-1.4848-5.541303c-3.136366-11.705783 3.810743-23.737783 15.516526-26.874149z" fill="#FFA700" p-id="5552"></path><path d="M313.559281 201.725926m118.692966-31.803684l150.858759-40.422483q118.692966-31.803684 150.49665 86.889282l65.25283 243.526879q31.803684 118.692966-86.889281 150.496649l-150.858759 40.422483q-118.692966 31.803684-150.49665-86.889281l-65.252831-243.526879q-31.803684-118.692966 86.889282-150.49665Z" fill="#D8000F" p-id="5553"></path><path d="M496.160183 152.798354c-65.550629 17.564526-104.453851 84.945189-86.889326 150.49728l65.253669 243.526217c17.564526 65.552091 84.943726 104.453851 150.49728 86.889326l-63.909303 17.124206c-65.552091 17.564526-132.932754-21.337234-150.49728-86.889326l-65.252206-243.526217c-17.564526-65.552091 21.337234-132.932754 86.889326-150.49728z" fill="#C40714" p-id="5554"></path><path d="M545.024 290.399086l126.194834 72.859063-72.859063 126.193371-126.193371-72.8576 72.8576-126.194834z m63.634286 89.6512l-46.748526 12.526445 10.877806 40.597212 7.908205-2.118217-0.8704-3.251932 30.930652-8.288548 0.871863 3.251931 7.908205-2.11968-10.877805-40.597211z m-72.578195-24.818835l-7.232365 4.292023c2.36544 2.852571 4.578743 5.8368 6.726217 8.935132l-11.600457 3.107108 2.143085 7.99744 19.33312-5.179977c-1.312183 9.864046-5.895314 20.886674-13.809371 33.1776l4.90496 8.105692a178.62656 178.62656 0 0 0 6.718903-11.125029l9.1136 34.008503 8.083748-2.166492-9.464685-35.326537a80.49664 80.49664 0 0 1 8.784457 5.368686l2.644846-8.054491a82.16576 82.16576 0 0 0-13.626515-5.860206c2.833554-7.35232 4.41344-14.463269 4.827429-21.354789l-1.88416-7.030491-8.348526 2.238171a107.587291 107.587291 0 0 0-7.314286-11.132343z m51.112229 54.023315l2.213303 8.259291-11.512686 3.083703-2.21184-8.259291 11.511223-3.085166z m19.420891-5.204846l2.213303 8.260754-11.512685 3.083703-2.213303-8.259291 11.512685-3.085166z m-23.423268-9.735314l2.141623 7.99744-11.511223 3.083703-2.143086-7.995978 11.512686-3.085165z m19.419428-5.203383l2.143086 7.99744-11.512686 3.083703-2.141622-7.995977 11.512685-3.085166z m-4.757211-33.572572l-38.664777 10.359955 5.485714 20.474148 38.664777-10.359954-5.485714-20.474149z m-6.056229 8.686446l1.95584 7.292343-23.023908 6.168869-1.954377-7.292343 23.023908-6.168869z m7.75168-22.045257l-48.331337 12.950674 1.977783 7.381577 48.331337-12.949211-1.977783-7.381577z" fill="#FFE400" p-id="5555" data-spm-anchor-id="a313x.7781069.0.i6"></path><path d="M545.024 290.399086l10.852937 6.265417-66.592183 115.341897 115.341897 66.593646-6.26688 10.851474-126.193371-72.8576 72.8576-126.194834z" fill="#FFA700" p-id="5556"></path></svg>