<?xml version="1.0" standalone="no"?><!DOCTYPE svg PUBLIC "-//W3C//DTD SVG 1.1//EN" "http://www.w3.org/Graphics/SVG/1.1/DTD/svg11.dtd"><svg t="1672455492663" class="icon" viewBox="0 0 1024 1024" version="1.1" xmlns="http://www.w3.org/2000/svg" p-id="3626" xmlns:xlink="http://www.w3.org/1999/xlink" width="200" height="200"><path d="M485.669 4.389c27.645 0 49.737 24.064 49.737 53.394 0 14.192-5.15 39.376-12.503 60.087l-0.59 1.638c-9.66 26.57-21.284 42.87-36.644 42.87s-26.984-16.3-36.645-42.87l-0.59-1.638c-7.355-20.711-12.503-45.895-12.503-60.087 0-29.33 22.092-53.394 49.738-53.394z m0 17.554c-17.599 0-32.183 15.886-32.183 35.84 0 11.98 4.758 35.252 11.49 54.212 3.712 10.452 7.822 19.134 11.96 25.092 3.73 5.372 6.89 7.736 8.733 7.736 1.843 0 5.003-2.364 8.733-7.736 4.137-5.956 8.247-14.64 11.959-25.092 6.732-18.96 11.49-42.233 11.49-54.212 0-19.954-14.584-35.84-32.182-35.84z m17.97 665.736l-3.54 23.037c-13.428 86.894-22.573 140.19-27.339 159.45a8.777 8.777 0 1 0 17.04 4.217l0.327-1.345 0.504-2.154c5.566-24.298 15.652-84.323 30.36-180.551a8.777 8.777 0 0 0-17.353-2.654z" fill="#91000A" p-id="3627"></path><path d="M539.484 115.212l327.27 196.644c11.741 16.44 3.484 48.17-24.77 95.193-28.254 47.02-52.394 69.208-72.42 66.561l-327.27-196.644c-12.577-16.942-4.737-48.924 23.516-95.946 28.254-47.02 52.812-68.958 73.674-65.808z" fill="#D8000F" p-id="3628"></path><path d="M539.484 115.212l327.27 196.644c11.741 16.44 3.484 48.17-24.77 95.193-28.254 47.02-52.394 69.208-72.42 66.561l-327.27-196.644c-12.577-16.942-4.737-48.924 23.516-95.946 28.254-47.02 52.812-68.958 73.674-65.808z" fill="#D8000F" p-id="3629"></path><path d="M465.81 181.02c4.298-7.152 8.51-13.723 12.636-19.715-18.692 35.992-22.706 61.17-12.043 75.536l327.27 196.645c16.981 2.244 36.92-13.367 59.815-46.83-3.372 6.442-7.206 13.24-11.504 20.391-28.254 47.022-52.394 69.211-72.42 66.563l-327.27-196.644c-12.577-16.942-4.737-48.924 23.516-95.946z" fill="#C40714" p-id="3630"></path><path d="M513.695 319.552l97.193-161.755 17.554 10.547L531.25 330.1z" fill="#FFE400" p-id="3631"></path><path d="M513.695 319.552l24.108-40.126 17.556 10.547-24.11 40.127z" fill="#FFA700" p-id="3632"></path><path d="M583.22 318.125l269.975 269.977c7.414 18.79-8.274 47.583-47.064 86.372-38.79 38.79-67.581 54.478-86.372 47.064L449.782 451.562c-8.104-19.482 7.24-48.618 46.03-87.407 38.79-38.79 67.925-54.133 87.406-46.03z" fill="#D8000F" p-id="3633"></path><path d="M583.22 318.125l269.975 269.977c7.414 18.79-8.274 47.583-47.064 86.372-38.79 38.79-67.581 54.478-86.372 47.064L449.782 451.562c-8.104-19.482 7.24-48.618 46.03-87.407 38.79-38.79 67.925-54.133 87.406-46.03z" fill="#D8000F" p-id="3634"></path><path d="M495.812 364.155c5.9-5.9 11.577-11.258 17.03-16.073-26.844 30.402-36.83 53.86-29.96 70.379l269.977 269.977c15.934 6.286 39.056-4.037 69.366-30.969-4.829 5.436-10.194 11.104-16.094 17.005-38.79 38.79-67.581 54.478-86.372 47.064L449.782 451.562c-8.104-19.482 7.24-48.618 46.03-87.407z" fill="#C40714" p-id="3635"></path><path d="M508.761 510.157l133.436-133.438L656.68 391.2 523.242 524.638z" fill="#FFE400" p-id="3636"></path><path d="M508.761 510.157l33.1-33.102 14.483 14.483-33.102 33.1z" fill="#FFA700" p-id="3637"></path><path d="M579.068 568.984l245.42 292.48c5.748 19.368-12.39 46.68-54.414 81.943-42.023 35.26-72.07 48.38-90.145 39.358l-245.42-292.48c-6.375-20.115 11.45-47.801 53.474-83.062 42.023-35.262 72.385-48.008 91.085-38.239z" fill="#D8000F" p-id="3638"></path><path d="M579.068 568.984l245.42 292.48c5.748 19.368-12.39 46.68-54.414 81.943-42.023 35.26-72.07 48.38-90.145 39.358l-245.42-292.48c-6.375-20.115 11.45-47.801 53.474-83.062 42.023-35.262 72.385-48.008 91.085-38.239z" fill="#D8000F" p-id="3639"></path><path d="M487.983 607.222c6.392-5.363 12.513-10.205 18.366-14.526-29.392 27.945-41.384 50.445-35.98 67.499L715.79 952.674c15.325 7.65 39.258-0.617 71.801-24.804-5.285 4.994-11.125 10.173-17.516 15.535-42.024 35.263-72.07 48.383-90.146 39.36l-245.42-292.48c-6.376-20.115 11.45-47.801 53.473-83.062z" fill="#C40714" p-id="3640"></path><path d="M488.157 753.796l144.56-121.3 13.164 15.689-144.56 121.3z" fill="#FFE400" p-id="3641"></path><path d="M488.157 753.796l35.86-30.09 13.165 15.69-35.86 30.089z" fill="#FFA700" p-id="3642"></path><path d="M442.244 154.285L172.268 424.262c-7.414 18.79 8.273 47.583 47.064 86.372 38.79 38.79 67.581 54.478 86.371 47.064l269.978-269.976c8.104-19.482-7.241-48.618-46.03-87.407-38.79-38.79-67.925-54.133-87.406-46.03z" fill="#D8000F" p-id="3643"></path><path d="M442.244 154.285L172.268 424.262c-7.414 18.79 8.273 47.583 47.064 86.372 38.79 38.79 67.581 54.478 86.371 47.064l269.978-269.976c8.104-19.482-7.241-48.618-46.03-87.407-38.79-38.79-67.925-54.133-87.406-46.03z" fill="#D8000F" p-id="3644"></path><path d="M529.65 200.315c-5.899-5.9-11.576-11.258-17.028-16.073 26.843 30.402 36.829 53.86 29.959 70.379L272.603 524.598c-15.933 6.286-39.055-4.037-69.365-30.969 4.829 5.436 10.194 11.104 16.094 17.005 38.79 38.79 67.581 54.478 86.371 47.064l269.978-269.976c8.104-19.482-7.241-48.618-46.03-87.407z" fill="#C40714" p-id="3645"></path><path d="M516.702 346.317L383.266 212.879l-14.483 14.481 133.438 133.438z" fill="#FFE400" p-id="3646"></path><path d="M516.702 346.317l-33.1-33.102-14.483 14.483 33.102 33.1z" fill="#FFA700" p-id="3647"></path><path d="M459.543 365.959L268.641 696.61c-2.297 20.07 20.308 43.82 67.816 71.249s79.378 35.13 95.611 23.105l190.903-330.652c2.784-20.915-19.578-45.085-67.085-72.514s-79.622-34.71-96.343-21.84z" fill="#D8000F" p-id="3648"></path><path d="M459.543 365.959L268.641 696.61c-2.297 20.07 20.308 43.82 67.816 71.249s79.378 35.13 95.611 23.105l190.903-330.652c2.784-20.915-19.578-45.085-67.085-72.514s-79.622-34.71-96.343-21.84z" fill="#D8000F" p-id="3649"></path><path d="M555.886 387.798c-7.227-4.172-14.096-7.878-20.609-11.118 33.796 22.418 49.515 42.493 47.154 60.226L391.528 767.56c-13.764 10.196-38.77 6.21-75.018-11.96 6.07 4 12.72 8.088 19.947 12.259 47.508 27.428 79.378 35.132 95.611 23.107l190.903-330.653c2.784-20.914-19.578-45.085-67.085-72.513z" fill="#C40714" p-id="3650"></path><path d="M581.167 532.176L417.739 437.82l-10.24 17.736 163.428 94.354z" fill="#FFE400" p-id="3651"></path><path d="M581.167 532.176l-40.54-23.406-10.24 17.736 40.54 23.405zM462.65 744.853c28.134 58.744 67.013 77.06 116.634 54.947-48.972 53.344-51.115 81.687-0.885 137.235-59.28-29.133-93.147-15.472-101.601 40.983-11.447-54.904-52.445-69.475-122.996-43.715 31.788-34.046 79.997-75.53 8.79-119.388 74.57 10.174 106.091-11.897 100.059-70.062z" fill="#FFA700" p-id="3652"></path><path d="M472.89 788.739c21.307 29.487 56.773 33.175 106.394 11.06-48.972 53.345-51.115 81.688-0.885 137.236-59.28-29.133-93.147-15.472-101.601 40.983 0.646-60.709-23.428-85.478-72.223-74.307 31.787-16.98 24.493-56.563 7.671-69.346 31 11.172 64.552-4.334 60.643-45.626z" fill="#FFE400" p-id="3653"></path></svg>