<?xml version="1.0" standalone="no"?><!DOCTYPE svg PUBLIC "-//W3C//DTD SVG 1.1//EN" "http://www.w3.org/Graphics/SVG/1.1/DTD/svg11.dtd"><svg t="1672455732579" class="icon" viewBox="0 0 1024 1024" version="1.1" xmlns="http://www.w3.org/2000/svg" p-id="9574" xmlns:xlink="http://www.w3.org/1999/xlink" width="200" height="200"><path d="M838.17 209a3.69 3.69 0 0 1-6.18-3.56c1.8-6.77 2.1-13-11.51-26.64-11.46-11.46-22.74-4.3-40.19 8.35-5.24 3.8-17.87 13.71-35.35 27.44C705 246 638.2 298.43 586.95 334.93c-54.16 38.57-148.57 120.5-211 174.72C354.18 528.5 337 543.39 326.73 552c-38.93 32.41-99.84 107.23-110.44 129-4.49 9.22-18.9 35.55-35.58 66-22.08 40.35-47.1 86.09-52.46 98.41-2.75 6.31-3.25 11.26-1.45 14.33 1.94 3.3 6.14 3.79 6.18 3.8l31.29 0.54a3.69 3.69 0 0 1-0.12 7.39l-31.58-0.56c-0.62 0-8.28-0.86-12.14-7.42-3.09-5.25-2.74-12.33 1.05-21 5.5-12.62 30.61-58.5 52.76-99 15.94-29.14 31-56.67 35.41-65.73C220.5 655.48 282.49 579.23 322 546.3c10.25-8.54 27.38-23.41 49.07-42.23 62.58-54.32 157.15-136.39 211.6-175.16 51.11-36.39 117.84-88.81 157.72-120.12 17.54-13.77 30.22-23.73 35.1-27.27 16.81-12.18 33.72-24.43 50.22-7.93 14.8 14.8 16.13 23.59 13.43 33.76a3.67 3.67 0 0 1-0.97 1.65z" fill="#333333" p-id="9575"></path><path d="M280.2 810.6c-3.7 3.7-8.47 5.32-13.14 6.91-8.32 2.82-16.89 5.75-23.58 20.23-13.79 29.94-56.75 58.4-81.49 65.65-16 4.69-25.3 1.65-30.32-1.73a21.82 21.82 0 0 1-9.38-16.33c-1.37-13.81 22.71-20.65 25.47-21.39a3.69 3.69 0 0 1 1.91 7.13c-8.39 2.25-20.56 8.11-20 13.52a14.73 14.73 0 0 0 6.16 10.94c5.31 3.58 13.64 3.85 24.11 0.78 23.37-6.86 63.92-33.62 76.86-61.66 8-17.36 19-21.12 27.9-24.13 6.67-2.26 11.07-3.77 13.29-10.13 6.45-18.42 13.77-61.82 2.38-83.56-4.07-7.77-12.61-10.67-19.06-11.72-18.5-3-43.59 4.73-57.12 17.67a3.69 3.69 0 0 1-5.17-5.28l0.06-0.06c15.28-14.62 42.55-23 63.43-19.62 11.63 1.9 20.07 7.3 24.41 15.58 13.17 25.13 4.17 71.94-2 89.43a20.1 20.1 0 0 1-4.72 7.77zM499.67 632.46a2.12 2.12 0 0 1-0.29 0.23q-4 2.65-7.85 5.58a1.85 1.85 0 0 1-2.23-2.95c2.66-2 5.37-3.93 8-5.71a1.85 1.85 0 0 1 2.37 2.85z" fill="#333333" p-id="9576"></path><path d="M390.3 756.28c-28 28-65.4 57.47-78.18 61.28-16.28 4.86-23.05 9.2-29.85 15.52-8 7.46-49 23.91-53.68 25.76a3.69 3.69 0 1 1-2.73-6.86c17.74-7.07 46.06-19.38 51.38-24.32 8.68-8.06 17.25-12.55 32.78-17.18 14.16-4.22 71.48-50.84 96.76-83.51 4.26-5.49 8.61-11.3 13.08-17.27 6.36-8.48 13-17.28 19.87-26a3.77 3.77 0 0 1 5.19-0.6 3.71 3.71 0 0 1 0.6 5.19c-6.87 8.66-13.43 17.41-19.74 25.83-4.5 6-8.88 11.85-13.15 17.37a273.39 273.39 0 0 1-22.33 24.79zM908.91 173.16c-13.16 13.16-52 32.55-70.95 35a3.69 3.69 0 1 1-0.94-7.33c19.75-2.51 59.22-23.56 68.16-34.5a9.5 9.5 0 0 0 1.72-8.79c-1.91-7.78-10.13-15.13-12.5-16.15-1-0.44-3.33 0-4.86 0.29-2.49 0.47-5.58 1.06-7.28-1.65-1.84-2.93 0.55-6.16 2.13-8.29 1.9-2.58 1.64-7.85-0.64-12.84-1.33-2.92-6.61-12.52-18.47-13.43-16.3-1.25-40 23.65-50.89 42.1-10.59 18-38.32 42.6-39.49 43.64a3.69 3.69 0 0 1-4.9-5.53c0.28-0.26 28-24.9 38-41.85 9.21-15.65 35.45-47.44 57.84-45.72 10.72 0.83 19.93 7.45 24.62 17.73 3 6.58 3.39 13.23 1.18 18.05a11.65 11.65 0 0 1 5.66 0.71c4.39 1.88 14.27 11.06 16.77 21.17a16.88 16.88 0 0 1-3.15 15.23 29.49 29.49 0 0 1-2.01 2.16z" fill="#333333" p-id="9577"></path><path d="M606.11 594c-32.38 32.38-79.23 62.4-128.59 30.69a3.69 3.69 0 0 1-0.37-5.94c1-0.8 97.19-81.3 129.91-119 9.57-11 21.42-23.6 34-36.94C672.87 429 712.49 386.85 746.9 337.2c12.64-18.23 23.48-33.45 32.87-46.62 26.59-37.32 41.24-57.87 52-84.1a3.59 3.59 0 0 1 1.8-1.92c0.48-0.23 11.89-5.7 21 0.88 8.7 6.32 19.15 24.5-8.62 75.41S774.06 395.27 728 450.65c-25.24 30.36-41.87 49-54 62.62-10.92 12.24-18.81 21.08-27.19 31.86-1.27 1.63-2.79 3.65-4.54 6-7.45 9.95-20.01 26.69-36.16 42.87z m-120.27 27.06c66.52 37.65 127.32-43.44 150.54-74.38 1.78-2.38 3.33-4.44 4.61-6.09 8.53-11 16.5-19.9 27.51-32.25 12.11-13.57 28.69-32.16 53.84-62.42 45.74-55 89.5-118.06 117.08-168.61 26-47.67 16.19-62 10.76-65.89-4.17-3-9.76-1.57-12.19-0.71-11 26.32-25.79 47.06-52.22 84.14-9.36 13.15-20.18 28.35-32.77 46.56-34.73 50.1-74.55 92.43-106.56 126.44-12.49 13.28-24.3 25.83-33.77 36.73-29.76 34.18-108.04 100.66-126.83 116.48z" fill="#333333" p-id="9578"></path><path d="M537.27 682.85c-9.12 9.12-29.37 11.71-48.64 13-17.55 1.13-55-8-56.54-8.41a3.69 3.69 0 0 1 1.77-7.17c0.38 0.09 37.88 9.27 54.29 8.21 11.2-0.72 41-2.69 45.92-13.63 3.54-7.78-7.61-19.55-14.27-26.58-1.71-1.8-3.21-3.4-4.32-4.71-4.65-5.56-21.85-6.17-39.12 1.82-21.86 10.11-31.69 16.29-33.64 18.42a3.85 3.85 0 0 1-5.2 0.43 3.69 3.69 0 0 1-0.43-5.2c3.35-4 15.53-10.81 36.17-20.36 19.3-8.93 40.34-8.86 47.88 0.15 1 1.22 2.43 2.7 4 4.37 8.45 8.92 21.23 22.41 15.64 34.72a17 17 0 0 1-3.51 4.94zM390.33 723.49C377 736.85 360.57 744.21 344.84 739c-12.38-4.13-17.37-5.47-19.36-5.89a1.78 1.78 0 0 1-2.07 0.16c-1.88-1.12-1.33-2.58-1.2-2.86 0.86-1.8 1.1-2.49 23.81 5.09 24.61 8.21 53.06-19.53 64.16-50.61 3.63-10.17 4.16-16.63 1.58-19.19-4.44-4.38-20 1.39-32.45 6-25.24 9.37-74.64 53.5-75.14 53.95a1.85 1.85 0 0 1-2.54-2.68l0.07-0.07c2-1.83 50.43-45 76.32-54.66 18.25-6.77 30.64-10.79 36.33-5.18 3.8 3.76 3.58 11.08-0.69 23a103 103 0 0 1-23.33 37.43zM296.66 581.29a3.69 3.69 0 0 1-6.09-3.86c0.1-0.29 10.18-28.48 10.88-45.43 0.82-19.5-6.77-50.6-18.52-52-2.17-0.26-3.08 0.35-3.57 0.83-3.33 3.33-2.39 15-1.71 23.55a109.26 109.26 0 0 1 0.57 13.49c-0.71 13.49 8 71.06 8.08 71.64a3.69 3.69 0 1 1-7.31 1.1c-0.36-2.39-8.9-58.89-8.15-73.14a107.06 107.06 0 0 0-0.56-12.5c-0.93-11.62-1.9-23.62 3.85-29.37l0.13-0.13c1.67-1.61 4.69-3.41 9.55-2.85 20.67 2.4 25.66 45.15 25.06 59.61-0.76 18.09-10.88 46.43-11.32 47.63a3.7 3.7 0 0 1-0.89 1.43zM172.05 834.2a12.82 12.82 0 1 1 0-18.14 12.85 12.85 0 0 1 0 18.14z m-15.52-15.52a9.13 9.13 0 1 0 12.91 0 9.14 9.14 0 0 0-12.91 0zM502.24 742.54a3.14 3.14 0 0 1-2.16 0.92c-0.34 0-35.19 1.15-103.38 39.9-69.61 39.56-241.59 72.44-243.32 72.77a3.14 3.14 0 0 1-1.16-6.16c1.72-0.32 172.67-33 241.38-72.05 69.86-39.7 104.92-40.7 106.38-40.72a3.12 3.12 0 0 1 3.18 3.08 3.09 3.09 0 0 1-0.92 2.26zM285.42 947.56c-8.49 8.49-26.79 2.75-34.64-2.84-8.67-6.17-24.52-27.67-38.54-52.29-14.32-25.15-31-23.46-31.73-23.38a1.85 1.85 0 0 1-0.47-3.66c0.8-0.11 19.78-2.23 35.41 25.22 16.08 28.24 30.69 46.29 37.46 51.11s23 10.15 29.89 3.23a1.85 1.85 0 0 1 2.62 2.61z" fill="#333333" p-id="9579"></path><path d="M260.83 981a1.84 1.84 0 0 1-2 0.4c-21.85-9.2-33.66-27-41.5-41.42s-26.89-53.83-27.08-54.22a1.87 1.87 0 0 1 0.86-2.47 1.85 1.85 0 0 1 2.47 0.86c0.19 0.4 19.22 39.74 27 54.08 7.56 13.91 18.89 31 39.68 39.77a1.85 1.85 0 0 1 0.57 3zM288.33 586.64a1.85 1.85 0 0 1-3.15-1.21c-0.21-3.93-5-96.49-1.21-109a1.84 1.84 0 1 1 3.53 1.06c-2.85 9.53-0.36 74.66 1.36 107.77a1.84 1.84 0 0 1-0.53 1.38zM292.28 582.45a1.82 1.82 0 0 1-1.28 0.55 1.85 1.85 0 0 1-1.87-1.83c0-2.49-0.44-61.12 8.68-86.33a1.85 1.85 0 1 1 3.48 1.25c-8.9 24.58-8.47 84.44-8.46 85a1.85 1.85 0 0 1-0.55 1.36zM811.58 170.8a1.85 1.85 0 0 1-2.89-2.25c1.29-2.16 31.73-53 52.12-68.21a1.84 1.84 0 0 1 2.21 2.95c-19.75 14.87-50.86 66.63-51.16 67.15a1.64 1.64 0 0 1-0.28 0.36zM821.53 175a1.85 1.85 0 0 1-2.8-2.39c1.8-2.46 44-60.3 59.61-67.21a1.85 1.85 0 0 1 1.5 3.38c-14.67 6.5-57.69 65.41-58.12 66a2 2 0 0 1-0.19 0.22zM890.55 126.2a1.41 1.41 0 0 1-0.27 0.22c-12.62 8.53-60.59 55.77-61.07 56.25a1.85 1.85 0 0 1-2.6-2.62c2-2 48.7-47.95 61.59-56.67a1.85 1.85 0 0 1 2.35 2.82zM901.37 144.34c-14.82 14.82-64.51 45.41-66.68 46.74a1.85 1.85 0 0 1-1.93-3.15c0.53-0.32 51.48-31.69 66-46.18 0.38-0.38 0.73-0.74 1.07-1.11a1.92 1.92 0 0 1 2.61-0.1 1.85 1.85 0 0 1 0.1 2.61c-0.37 0.39-0.76 0.78-1.17 1.19zM912.18 163.31l-0.1 0.09C900 173.88 839.6 197.54 837 198.54a1.84 1.84 0 1 1-1.34-3.44c0.62-0.24 62.4-24.43 74-34.49a1.85 1.85 0 0 1 2.52 2.7zM571.44 620.13a2 2 0 0 1-0.58 0.4c-36.61 15.6-74.72-9.95-76.32-11a1.85 1.85 0 0 1-0.48-2.56 1.75 1.75 0 0 1 2.57-0.49c0.38 0.27 38.07 25.5 72.79 10.7a1.84 1.84 0 0 1 2.02 2.95zM589.19 607.2a1.78 1.78 0 0 1-0.81 0.47c-33.81 9.56-74.81-11.88-76.54-12.79a1.86 1.86 0 0 1-0.77-2.5 1.88 1.88 0 0 1 2.5-0.77c0.41 0.21 41.43 21.66 73.81 12.51a1.85 1.85 0 0 1 1.81 3.08zM606.13 591.52a1.82 1.82 0 0 1-0.8 0.47c-28.17 8.1-73-12.38-74.85-13.26a1.84 1.84 0 1 1 1.55-3.35c0.45 0.2 45.44 20.77 72.28 13.06a1.85 1.85 0 0 1 1.82 3.08zM621.45 574.61a1.81 1.81 0 0 1-0.75 0.45c-28.42 9-69.7-12.25-71.44-13.16a1.85 1.85 0 1 1 1.7-3.28c0.42 0.21 41.67 21.41 68.62 12.92a1.85 1.85 0 0 1 1.87 3.07zM634.56 558.25a1.85 1.85 0 0 1-0.84 0.48c-34.21 8.85-64.52-13.32-65.8-14.27a1.84 1.84 0 0 1 2.2-3c0.3 0.22 30.2 22 62.67 13.65a1.85 1.85 0 0 1 1.77 3.14zM646.08 543.07a1.86 1.86 0 0 1-0.89 0.49c-26.57 6-58.73-14.36-60.08-15.23a1.85 1.85 0 1 1 2-3.11c0.32 0.21 32.23 20.42 57.26 14.74a1.85 1.85 0 0 1 1.71 3.11zM661.52 524.58a1.78 1.78 0 0 1-0.87 0.48c-32.67 7.89-57.31-13.63-58.34-14.55a1.85 1.85 0 0 1-0.15-2.61 1.77 1.77 0 0 1 2.61-0.16c0.23 0.21 24.27 21.15 55 13.73a1.85 1.85 0 0 1 1.75 3.11zM677.14 507a1.79 1.79 0 0 1-0.89 0.49c-29.54 6.9-56.81-13.72-58-14.61a1.85 1.85 0 0 1 2.25-2.93c0.27 0.2 27 20.44 54.87 13.94a1.85 1.85 0 0 1 1.77 3.11zM695.49 486.14a1.81 1.81 0 0 1-0.94 0.5C655.93 494.49 637 474 636.19 473.1a1.87 1.87 0 0 1 0.14-2.6 1.85 1.85 0 0 1 2.61 0.13c0.18 0.2 18.43 19.81 54.88 12.4a1.85 1.85 0 0 1 1.67 3.11zM711.51 467.46a1.82 1.82 0 0 1-1 0.51c-30.2 5.38-55.43-12.51-56.49-13.28a1.86 1.86 0 0 1-0.42-2.58 1.83 1.83 0 0 1 2.58-0.42c0.24 0.18 25.05 17.75 53.67 12.65a1.85 1.85 0 0 1 1.66 3.12zM725.18 451.17a1.91 1.91 0 0 1-0.86 0.49c-26.84 6.71-52.74-14-53.84-14.86a1.86 1.86 0 0 1-0.28-2.6 2 2 0 0 1 2.6-0.28c0.25 0.21 25.58 20.41 50.61 14.15a1.85 1.85 0 0 1 1.77 3.1zM742.77 429.58a1.82 1.82 0 0 1-1 0.51c-31.9 5.57-52.62-12.43-53.48-13.19a1.84 1.84 0 0 1-0.15-2.6 1.71 1.71 0 0 1 2.61-0.17c0.2 0.18 20.31 17.57 50.4 12.33a1.85 1.85 0 0 1 1.62 3.12zM756.87 411.51a1.81 1.81 0 0 1-1.1 0.53c-26.23 3-49-14.52-50-15.27a1.84 1.84 0 0 1-0.32-2.59 1.82 1.82 0 0 1 2.59-0.33c0.22 0.17 22.6 17.32 47.31 14.52a1.85 1.85 0 0 1 1.52 3.14zM773 390a1.87 1.87 0 0 1-0.87 0.49C746.43 396.76 722 379 721 378.22a1.84 1.84 0 0 1-0.39-2.58 1.81 1.81 0 0 1 2.58-0.39c0.24 0.18 24.07 17.51 48.07 11.64A1.85 1.85 0 0 1 773 390zM789 367.61a1.89 1.89 0 0 1-0.63 0.41c-19.82 7.82-51.15-8.09-52.48-8.77a1.85 1.85 0 0 1 1.69-3.29c0.31 0.16 31.16 15.82 49.43 8.62a1.85 1.85 0 0 1 1.99 3.03zM802.12 348.57a1.83 1.83 0 0 1-1.05 0.52c-23 3.2-49.17-10-50.27-10.58a1.85 1.85 0 1 1 1.68-3.3c0.26 0.14 26.29 13.25 48.08 10.22a1.85 1.85 0 0 1 1.56 3.14zM816.7 326.29a1.79 1.79 0 0 1-0.79 0.46c-18 5.22-48.51-9.4-49.81-10a1.85 1.85 0 0 1 1.61-3.33c0.3 0.15 30.56 14.63 47.16 9.81a1.85 1.85 0 0 1 1.83 3.06zM829.56 305.51a1.84 1.84 0 0 1-0.74 0.45c-19.52 6.25-47.93-7.81-49.13-8.4a1.85 1.85 0 0 1 1.65-3.31c0.28 0.14 28.27 14 46.35 8.19a1.85 1.85 0 0 1 1.87 3.07zM841.6 284.7a1.85 1.85 0 0 1-0.94 0.51c-22.92 4.58-45.25-8.09-46.19-8.64a1.85 1.85 0 0 1 1.84-3.2c0.22 0.13 22.09 12.51 43.63 8.21a1.85 1.85 0 0 1 1.66 3.12zM853.25 261.46a1.83 1.83 0 0 1-0.81 0.47c-23.31 6.56-41.79-7.67-42.56-8.27a1.84 1.84 0 0 1-0.32-2.59 1.82 1.82 0 0 1 2.59-0.32c0.18 0.14 17.81 13.67 39.28 7.63a1.85 1.85 0 0 1 1.82 3.08zM861.42 232.2a1.86 1.86 0 0 1-0.78 0.46c-17.92 5.33-35.21-2.3-35.93-2.62a1.85 1.85 0 0 1 1.51-3.37c0.17 0.08 16.8 7.37 33.37 2.45a1.85 1.85 0 0 1 1.83 3.08zM522.63 645.76a1.84 1.84 0 0 1-1.5 0.53c-22.53-2.41-74.64 22.84-75.16 23.09a1.85 1.85 0 1 1-1.62-3.32c2.18-1.07 53.6-26 77.17-23.45a1.85 1.85 0 0 1 1.11 3.15zM535.31 660.75a1.86 1.86 0 0 1-1.41 0.54c-23.93-1.34-88 13.83-88.67 14a1.85 1.85 0 0 1-0.86-3.59c2.65-0.63 65.27-15.44 89.73-14.09a1.85 1.85 0 0 1 1.21 3.14zM539.45 675.45a1.83 1.83 0 0 1-0.78 0.46c-31.1 9.18-97 5.39-99.78 5.22a1.84 1.84 0 0 1 0.21-3.68c0.68 0 68 3.92 98.51-5.08a1.85 1.85 0 0 1 1.84 3.08zM439.52 761.43a3.12 3.12 0 0 1-1 0.65c-6.95 3.06-14.26 6.4-21.94 9.91-29.79 13.61-63.55 29-103.34 41.08-47.12 14.28-158.7 40.13-159.82 40.39a3.14 3.14 0 0 1-3.76-2.35 3.17 3.17 0 0 1 2.35-3.76c1.12-0.26 112.49-26.06 159.42-40.28 39.39-11.93 72.95-27.26 102.55-40.79 7.71-3.53 15-6.87 22-9.94a3.14 3.14 0 0 1 3.54 5.09z" fill="#333333" p-id="9580"></path><path d="M407.59505 616.27205m-5.409367 5.409367a7.65 7.65 0 1 0 10.818734-10.818734 7.65 7.65 0 1 0-10.818734 10.818734Z" fill="#333333" p-id="9581"></path><path d="M529.204 547.207515m-5.409367 5.409367a7.65 7.65 0 1 0 10.818734-10.818734 7.65 7.65 0 1 0-10.818734 10.818734Z" fill="#333333" p-id="9582"></path><path d="M462.506 564.668343m-5.409367 5.409367a7.65 7.65 0 1 0 10.818734-10.818734 7.65 7.65 0 1 0-10.818734 10.818734Z" fill="#333333" p-id="9583"></path><path d="M505.434243 503.828243m-5.409367 5.409367a7.65 7.65 0 1 0 10.818734-10.818734 7.65 7.65 0 1 0-10.818734 10.818734Z" fill="#333333" p-id="9584"></path><path d="M618.16 419.83m-5.409367 5.409367a7.65 7.65 0 1 0 10.818734-10.818734 7.65 7.65 0 1 0-10.818734 10.818734Z" fill="#333333" p-id="9585"></path><path d="M601.04 477.75m-5.409367 5.409367a7.65 7.65 0 1 0 10.818734-10.818734 7.65 7.65 0 1 0-10.818734 10.818734Z" fill="#333333" p-id="9586"></path><path d="M679.784414 373.236515m-5.409367 5.409367a7.65 7.65 0 1 0 10.818734-10.818734 7.65 7.65 0 1 0-10.818734 10.818734Z" fill="#333333" p-id="9587"></path><path d="M724.726364 309.953222m-5.409367 5.409367a7.65 7.65 0 1 0 10.818734-10.818734 7.65 7.65 0 1 0-10.818734 10.818734Z" fill="#333333" p-id="9588"></path><path d="M786.949343 202.904414m-5.409367 5.409367a7.65 7.65 0 1 0 10.818734-10.818734 7.65 7.65 0 1 0-10.818734 10.818734Z" fill="#333333" p-id="9589"></path><path d="M320.336414 590.561485m-5.409367 5.409367a7.65 7.65 0 1 0 10.818734-10.818734 7.65 7.65 0 1 0-10.818734 10.818734Z" fill="#333333" p-id="9590"></path><path d="M381.081464 553.933536m-5.409366 5.409366a7.65 7.65 0 1 0 10.818733-10.818733 7.65 7.65 0 1 0-10.818733 10.818733Z" fill="#333333" p-id="9591"></path><path d="M455.445757 490.371757m-5.409367 5.409367a7.65 7.65 0 1 0 10.818734-10.818734 7.65 7.65 0 1 0-10.818734 10.818734Z" fill="#333333" p-id="9592"></path><path d="M490.661485 437.823586m-5.409367 5.409367a7.65 7.65 0 1 0 10.818734-10.818734 7.65 7.65 0 1 0-10.818734 10.818734Z" fill="#333333" p-id="9593"></path><path d="M556.563515 444.094343m-5.409367 5.409367a7.65 7.65 0 1 0 10.818734-10.818734 7.65 7.65 0 1 0-10.818734 10.818734Z" fill="#333333" p-id="9594"></path><path d="M592.61495 358.80795m-5.409367 5.409367a7.65 7.65 0 1 0 10.818734-10.818734 7.65 7.65 0 1 0-10.818734 10.818734Z" fill="#333333" p-id="9595"></path><path d="M643.072778 320.644707m-5.409367 5.409367a7.65 7.65 0 1 0 10.818734-10.818734 7.65 7.65 0 1 0-10.818734 10.818734Z" fill="#333333" p-id="9596"></path><path d="M726.262657 252.786414m-5.409367 5.409367a7.65 7.65 0 1 0 10.818734-10.818734 7.65 7.65 0 1 0-10.818734 10.818734Z" fill="#333333" p-id="9597"></path></svg>